<?xml version="1.0" encoding="UTF-8"?>
<svg version="1.1" xmlns="http://www.w3.org/2000/svg" width="512" height="512">
<path d="M0 0 C4.22367701 0.00913286 8.44729031 -0.00495962 12.67095423 -0.01591969 C20.92346615 -0.03362248 29.17583181 -0.0299019 37.42834926 -0.01826912 C44.14071977 -0.00920243 50.85304955 -0.00802473 57.56542444 -0.01236439 C58.52403854 -0.01297732 59.48265263 -0.01359025 60.47031564 -0.01422176 C62.41826814 -0.01550077 64.36622063 -0.01679763 66.3141731 -0.01811212 C84.54164526 -0.02949378 102.76903669 -0.01644221 120.9964956 0.00508934 C136.60598892 0.02295812 152.21536321 0.01985333 167.82485437 0.0014143 C185.99110638 -0.02003519 204.1572878 -0.02839537 222.3235507 -0.01613665 C224.26397752 -0.01486257 226.20440434 -0.01360508 228.14483118 -0.01236439 C229.57658639 -0.01143873 229.57658639 -0.01143873 231.03726596 -0.01049438 C237.73457639 -0.0070537 244.4318417 -0.01284206 251.12914515 -0.0222826 C259.30095909 -0.03354941 267.47261953 -0.03036477 275.64441609 -0.00915962 C279.80662378 0.0012882 283.96857637 0.00558096 288.13078165 -0.00775623 C320.24228366 -0.10219022 320.24228366 -0.10219022 333.85512781 4.52289867 C334.70660898 4.80838825 335.55809015 5.09387783 336.43537378 5.38801861 C360.44725588 14.26344225 379.06992061 32.20049644 390.55044031 54.87055492 C399.32852354 74.08088279 399.4443546 92.96842907 399.37802649 113.66777086 C399.36889363 117.89144788 399.38298611 122.11506117 399.39394617 126.33872509 C399.41164897 134.59123701 399.40792839 142.84360268 399.39629561 151.09612012 C399.38722892 157.80849063 399.38605121 164.52082041 399.39039087 171.2331953 C399.39100381 172.1918094 399.39161674 173.15042349 399.39224824 174.1380865 C399.39352726 176.086039 399.39482412 178.03399149 399.39613861 179.98194396 C399.40752027 198.20941612 399.3944687 216.43680755 399.37293714 234.66426647 C399.35506837 250.27375978 399.35817316 265.88313407 399.37661219 281.49262524 C399.39806167 299.65887724 399.40642186 317.82505866 399.39416313 335.99132156 C399.39288906 337.93174838 399.39163157 339.87217521 399.39039087 341.81260204 C399.38977377 342.76710552 399.38915667 343.721609 399.38852087 344.70503682 C399.38508018 351.40234725 399.39086854 358.09961257 399.40030909 364.79691601 C399.41157589 372.96872996 399.40839126 381.14039039 399.38718611 389.31218696 C399.37673828 393.47439465 399.37244552 397.63634723 399.38578272 401.79855251 C399.48013544 433.87995366 399.48013544 433.87995366 394.85512781 447.52289867 C394.43481665 448.79219723 394.43481665 448.79219723 394.00601435 450.08713818 C385.29948907 474.00131829 366.99284711 492.84225328 344.51137781 504.21430492 C325.30503616 513.00252777 306.40852128 513.11212201 285.71025562 513.04579735 C281.48657861 513.03666449 277.26296531 513.05075697 273.0393014 513.06171703 C264.78678947 513.07941983 256.53442381 513.07569925 248.28190637 513.06406647 C241.56953585 513.05499978 234.85720607 513.05382208 228.14483118 513.05816174 C227.18621709 513.05877467 226.22760299 513.0593876 225.23993999 513.06001911 C223.29198749 513.06129812 221.344035 513.06259498 219.39608252 513.06390947 C201.16861036 513.07529113 182.94121893 513.06223956 164.71376002 513.04070801 C149.1042667 513.02283923 133.49489242 513.02594402 117.88540125 513.04438305 C99.71914924 513.06583253 81.55296783 513.07419272 63.38670492 513.06193399 C61.44627811 513.06065992 59.50585128 513.05940243 57.56542444 513.05816174 C56.61092097 513.05754463 55.65641749 513.05692753 54.67298967 513.05629173 C47.97567924 513.05285104 41.27841392 513.0586394 34.58111048 513.06807995 C26.40929653 513.07934676 18.23763609 513.07616212 10.06583953 513.05495697 C5.90363184 513.04450915 1.74167926 513.04021638 -2.42052603 513.05355358 C-34.50192718 513.1479063 -34.50192718 513.1479063 -48.14487219 508.52289867 C-49.41417074 508.10258751 -49.41417074 508.10258751 -50.70911169 507.67378521 C-74.62329181 498.96725993 -93.46422679 480.66061798 -104.83627844 458.17914867 C-113.62450128 438.97280702 -113.73409553 420.07629215 -113.66777086 399.37802649 C-113.658638 395.15434947 -113.67273048 390.93073617 -113.68369055 386.70707226 C-113.70139335 378.45456034 -113.69767276 370.20219467 -113.68603998 361.94967723 C-113.67697329 355.23730672 -113.67579559 348.52497693 -113.68013525 341.81260204 C-113.68074818 340.85398795 -113.68136111 339.89537386 -113.68199262 338.90771085 C-113.68327164 336.95975835 -113.68456849 335.01180586 -113.68588299 333.06385338 C-113.69726465 314.83638123 -113.68421308 296.60898979 -113.66268152 278.38153088 C-113.64481275 262.77203757 -113.64791753 247.16266328 -113.66635656 231.55317211 C-113.68780605 213.38692011 -113.69616623 195.22073869 -113.68390751 177.05447578 C-113.68263343 175.11404897 -113.68137595 173.17362214 -113.68013525 171.2331953 C-113.67951815 170.27869183 -113.67890105 169.32418835 -113.67826524 168.34076053 C-113.67482456 161.6434501 -113.68061292 154.94618478 -113.69005346 148.24888134 C-113.70132027 140.07706739 -113.69813563 131.90540696 -113.67693049 123.73361039 C-113.66648266 119.5714027 -113.6621899 115.40945012 -113.6755271 111.24724483 C-113.76987981 79.16584368 -113.76987981 79.16584368 -109.14487219 65.52289867 C-108.86466475 64.67669964 -108.5844573 63.8305006 -108.29575872 62.95865917 C-99.58923345 39.04447906 -81.28259149 20.20354407 -58.80112219 8.83149242 C-39.59478054 0.04326958 -20.69826566 -0.06632466 0 0 Z " fill="#FEE5E1" transform="translate(113.14487218856812,-0.5228986740112305)"/>
<path d="M0 0 C0.82982895 -0.00571014 1.6596579 -0.01142029 2.51463318 -0.01730347 C3.86750679 -0.01898026 3.86750679 -0.01898026 5.24771118 -0.02069092 C6.68253593 -0.02813828 6.68253593 -0.02813828 8.14634705 -0.03573608 C11.30986247 -0.05033792 14.47332776 -0.05715599 17.63687134 -0.06268311 C19.8363851 -0.06843562 22.03589886 -0.07419335 24.2354126 -0.07995605 C28.84709914 -0.09046002 33.45876827 -0.09630683 38.07046509 -0.09979248 C43.97754514 -0.10527978 49.884395 -0.12931556 55.79140282 -0.15776443 C60.33474398 -0.17639303 64.87802967 -0.18159651 69.42140579 -0.18312836 C71.59908941 -0.18615426 73.77677206 -0.19418066 75.95441818 -0.20731354 C79.00157938 -0.22438041 82.04817775 -0.22249221 85.09536743 -0.21600342 C86.44216835 -0.22982559 86.44216835 -0.22982559 87.81617737 -0.243927 C94.32304082 -0.20055288 98.45133198 1.11869146 103.48843384 5.45294189 C109.33591096 12.24865855 109.25578898 18.28992525 109.23452759 26.91387939 C109.23976944 28.15159088 109.24501129 29.38930237 109.25041199 30.66452026 C109.25846403 33.94621387 109.25138443 37.22748764 109.24008179 40.50915527 C109.23735482 43.82908193 109.27254524 47.14876352 109.29898071 50.46856689 C109.30059315 53.0128373 109.30001438 55.55711023 109.29702759 58.10137939 C109.30826157 59.2880722 109.31949554 60.47476501 109.33106995 61.69741821 C109.27286588 68.65397522 108.55983502 73.23365898 104.80093384 79.14044189 C101.00249479 82.84148507 97.24122969 85.07317525 91.86929321 85.22125244 C90.80517212 85.15720215 89.74105103 85.09315186 88.64468384 85.02716064 C74.61238025 83.94090827 74.61238025 83.94090827 62.31265259 89.32794189 C59.52190792 92.3904775 57.31457088 95.74432753 55.13467407 99.25689697 C52.89099054 102.42548903 50.03739621 105.00244451 46.80093384 107.14044189 C43.86343384 107.57794189 43.86343384 107.57794189 40.80093384 106.14044189 C36.97636498 102.65122145 33.72173394 98.78742417 31.19302368 94.26446533 C29.31418711 91.03502739 27.59513056 88.63610214 24.80093384 86.14044189 C19.6130004 84.77441689 14.60305813 84.99309369 9.30093384 85.26544189 C-6.94787207 85.84968567 -6.94787207 85.84968567 -12.75595093 81.53497314 C-16.49547946 77.92133975 -19.03375227 73.91591567 -19.34623718 68.66957092 C-19.35608139 67.68776352 -19.3659256 66.70595612 -19.37606812 65.69439697 C-19.38890335 64.57926224 -19.40173859 63.4641275 -19.41496277 62.31520081 C-19.4223497 61.10897568 -19.42973663 59.90275055 -19.43734741 58.65997314 C-19.44541916 57.41801682 -19.45349091 56.17606049 -19.46180725 54.89646912 C-19.47564924 52.26445792 -19.4866646 49.63257199 -19.49423218 47.00054932 C-19.50307822 44.31086476 -19.52391887 41.62169918 -19.55575562 38.93218994 C-19.59845786 35.04962595 -19.61460711 31.16774293 -19.62484741 27.28497314 C-19.6423555 26.08886917 -19.65986359 24.8927652 -19.67790222 23.66041565 C-19.65807396 15.99568375 -18.98459397 10.05049365 -13.41781616 4.30059814 C-12.56703491 3.7572583 -12.56703491 3.7572583 -11.69906616 3.20294189 C-11.13187866 2.82266846 -10.56469116 2.44239502 -9.98031616 2.05059814 C-6.72841633 0.38899143 -3.61765685 0.0149758 0 0 Z " fill="#FD907E" transform="translate(211.19906616210938,127.85955810546875)"/>
<path d="M0 0 C0.70613937 -0.00817749 1.41227875 -0.01635498 2.13981628 -0.02478027 C4.47788661 -0.04959773 6.8158961 -0.06614606 9.15405273 -0.08056641 C9.95522963 -0.08589008 10.75640652 -0.09121376 11.5818615 -0.09669876 C15.82735105 -0.12342196 20.07281136 -0.14279443 24.31835938 -0.15722656 C27.8189527 -0.17053218 31.31895845 -0.19832251 34.81933594 -0.23925781 C39.05688203 -0.28880751 43.29389775 -0.31337538 47.53172112 -0.32045364 C49.13955411 -0.32713157 50.7473769 -0.34226265 52.35504341 -0.36634445 C63.70722949 -0.52661096 72.16413572 0.64831587 80.90014648 8.50537109 C88.40661125 16.61376935 89.23909423 25.01957887 89.33764648 35.63037109 C89.38115234 37.18594727 89.38115234 37.18594727 89.42553711 38.77294922 C89.48937298 46.41852216 89.48937298 46.41852216 87.13061523 50.35302734 C84.17392978 52.93669868 82.58906609 53.31976673 78.75614929 53.35350037 C77.86031128 53.36354599 76.96447327 53.37359161 76.04148865 53.38394165 C74.56326378 53.39268814 74.56326378 53.39268814 73.05517578 53.40161133 C72.01928314 53.41139511 70.9833905 53.42117889 69.91610718 53.43125916 C66.47720637 53.46125174 63.0383445 53.48260797 59.59936523 53.50146484 C58.42695597 53.50803667 57.2545467 53.5146085 56.04660988 53.52137947 C49.84228344 53.55398823 43.63797431 53.57843677 37.43359375 53.59790039 C32.29141351 53.61572805 27.14978014 53.65057053 22.0078125 53.70043945 C15.80684153 53.76051514 9.60637853 53.79135895 3.40513039 53.80107307 C1.03957018 53.80964964 -1.32597566 53.82852139 -3.69137001 53.8578167 C-7.00041937 53.8965961 -10.3074778 53.89778288 -13.61669922 53.88989258 C-14.59610977 53.90989319 -15.57552032 53.9298938 -16.58460999 53.95050049 C-23.05370273 53.88115842 -23.05370273 53.88115842 -25.7011919 51.90294456 C-28.47635826 48.71113594 -29.60726201 46.12215446 -29.60375977 41.92724609 C-29.60569336 40.95400391 -29.60762695 39.98076172 -29.60961914 38.97802734 C-29.58577148 37.97642578 -29.56192383 36.97482422 -29.53735352 35.94287109 C-29.54831055 34.95673828 -29.55926758 33.97060547 -29.57055664 32.95458984 C-29.47300834 23.08270157 -26.69657084 15.17353566 -19.91235352 7.95068359 C-13.76270831 2.37136839 -8.29637894 0.0835003 0 0 Z " fill="#FC573B" transform="translate(225.974853515625,330.80712890625)"/>
<path d="M0 0 C1.69788387 0.02511183 3.39580346 0.04791992 5.09375 0.06835938 C9.23005668 0.12313312 13.36463117 0.20924287 17.5 0.3125 C17.48667633 1.39672493 17.48667633 1.39672493 17.4730835 2.50285339 C17.39237234 9.37115063 17.33175177 16.23937545 17.29275131 23.10802746 C17.27202534 26.63790076 17.2439894 30.16737675 17.19824219 33.69702148 C17.14578436 37.77070559 17.12693131 41.8439835 17.109375 45.91796875 C17.08872986 47.1632988 17.06808472 48.40862885 17.04681396 49.69169617 C17.04453271 58.75454504 17.85382814 69.27152411 23.7890625 76.62890625 C24.55992187 77.37011719 25.33078125 78.11132812 26.125 78.875 C28.90861947 81.6170039 30.84916527 83.78336784 32.5 87.3125 C30.43871085 89.54279675 28.3760129 91.77176223 26.3125 94 C25.73435547 94.62583984 25.15621094 95.25167969 24.56054688 95.89648438 C22.88103263 97.70884156 21.19236442 99.51214491 19.5 101.3125 C18.6028125 102.27027344 17.705625 103.22804688 16.78125 104.21484375 C14.5 106.3125 14.5 106.3125 11.1875 107.1875 C4.56613429 105.61632848 1.12515433 99.90865849 -2.36328125 94.3359375 C-5.79540223 88.58781901 -5.79540223 88.58781901 -11.390625 85.41796875 C-13.45342766 85.18214583 -15.52036784 84.97994179 -17.58984375 84.8125 C-22.4402586 83.97914013 -25.50545465 81.09356449 -28.5 77.3125 C-32.5105105 71.40417532 -31.96760836 65.19351315 -31.96875 58.3203125 C-31.97636353 57.06040497 -31.98397705 55.80049744 -31.99182129 54.50241089 C-32.00261279 51.84096637 -32.00685258 49.18041164 -32.00097656 46.51904297 C-31.99508738 43.12727825 -32.02565333 39.73694844 -32.06609344 36.34546089 C-32.09833238 33.08710648 -32.09385403 29.82880162 -32.09375 26.5703125 C-32.11014526 25.36174591 -32.12654053 24.15317932 -32.14343262 22.9079895 C-32.07671481 14.72559884 -30.69299635 9.53858602 -24.88549805 3.68525696 C-18.41416643 -1.9947712 -7.99729139 -0.20567568 0 0 Z " fill="#FD907E" transform="translate(159.5,138.6875)"/>
<path d="M0 0 C4.83799361 -0.09951569 9.67538025 -0.17177037 14.51416016 -0.21972656 C16.1571695 -0.23973571 17.80010859 -0.26695213 19.44287109 -0.30175781 C21.81625788 -0.35075305 24.18869649 -0.37307504 26.5625 -0.390625 C27.64893799 -0.42159271 27.64893799 -0.42159271 28.75732422 -0.45318604 C35.22695651 -0.45597788 40.16247552 1.18041713 44.80992126 5.79847717 C49.81744401 12.23491787 49.83300207 18.45081007 49.69140625 26.35546875 C49.69003159 27.61587479 49.68865692 28.87628082 49.6872406 30.17488098 C49.67821061 32.8277362 49.65797234 35.47739268 49.61743164 38.12963867 C49.56630591 41.51567253 49.55499487 44.9003636 49.55726719 48.2867384 C49.55625248 51.53894656 49.5297288 54.79087665 49.50390625 58.04296875 C49.49889854 59.85718575 49.49889854 59.85718575 49.49378967 61.70805359 C49.36734283 69.18471789 48.67247782 74.79248128 43.125 80.25 C40.05459235 83.12522281 37.38163079 85.01022912 33.01049805 84.99145508 C29.39601583 85.03658215 26.90901548 85.22349339 24.09741211 87.62524414 C22.30609279 89.80426179 20.70017795 92.03517255 19.125 94.375 C18.02483187 95.92546951 16.92331907 97.47498597 15.8203125 99.0234375 C15.34867676 99.71356934 14.87704102 100.40370117 14.39111328 101.11474609 C13.0273194 102.96297641 11.76332589 104.526167 10 106 C6.625 106.5 6.625 106.5 3 106 C0.69921875 103.92578125 0.69921875 103.92578125 -2 101 C-2.80050781 100.14704346 -2.80050781 100.14704346 -3.6171875 99.27685547 C-5.35779823 97.42175696 -7.08634882 95.55605384 -8.8125 93.6875 C-9.40998047 93.04232422 -10.00746094 92.39714844 -10.62304688 91.73242188 C-12.08291428 90.15576508 -13.54158093 88.57799662 -15 87 C-13.5433837 83.93202658 -12.15549941 82.02634445 -9.625 79.75 C-2.57039853 72.88606344 0.08080149 64.28745926 0.22705078 54.60571289 C0.22673592 52.0613387 0.21554377 49.51695002 0.1953125 46.97265625 C0.19157681 45.61502797 0.18873247 44.25739697 0.18673706 42.89976501 C0.17914431 39.34712118 0.15953397 35.79464397 0.1373291 32.24206543 C0.11677613 28.6086655 0.10771524 24.97523833 0.09765625 21.34179688 C0.07628339 14.22779691 0.04220087 7.1139094 0 0 Z " fill="#FD907E" transform="translate(335,139)"/>
<path d="M0 0 C9.08684714 5.51757099 13.94763671 12.39369137 17.27734375 22.3828125 C18.31005705 32.63618027 16.7787411 41.37429542 10.515625 49.734375 C4.22063268 56.55288595 -3.59358861 60.56229717 -12.79296875 61.62109375 C-21.83961925 61.9478739 -29.19057421 59.05647721 -36.09765625 53.2578125 C-42.91782726 46.70871347 -46.82072325 38.78922238 -47.03515625 29.3203125 C-46.91579547 19.54357987 -43.90058823 12.483044 -37.1015625 5.43359375 C-26.64794652 -3.57814417 -12.69309502 -6.04030811 0 0 Z " fill="#FC583C" transform="translate(270.72265625,253.6171875)"/>
<path d="M0 0 C1.22042244 -0.00642769 1.22042244 -0.00642769 2.46549988 -0.01298523 C4.18084792 -0.01870658 5.89622021 -0.01924504 7.61157227 -0.01489258 C10.21218105 -0.01174091 12.81164161 -0.03518967 15.41210938 -0.06054688 C17.08723817 -0.06282119 18.76236998 -0.06352275 20.4375 -0.0625 C21.20342972 -0.07170975 21.96935944 -0.08091949 22.75849915 -0.09040833 C28.42671588 -0.04274517 33.14867064 1.24959121 38.41796875 3.30078125 C38.41796875 4.29078125 38.41796875 5.28078125 38.41796875 6.30078125 C36.7658009 7.6520388 35.09676739 8.98275596 33.41796875 10.30078125 C27.03903964 18.68451666 23.51510986 26.09561387 22.84765625 36.5625 C22.76499512 37.82408936 22.68233398 39.08567871 22.59716797 40.38549805 C22.50846436 41.82856323 22.50846436 41.82856323 22.41796875 43.30078125 C15.67371486 43.40227387 8.9296582 43.47228558 2.18481445 43.52050781 C-0.10920573 43.54061231 -2.40317473 43.56790016 -4.69702148 43.60253906 C-7.99605951 43.65110684 -11.29441947 43.67376202 -14.59375 43.69140625 C-15.61788498 43.71205139 -16.64201996 43.73269653 -17.69718933 43.75396729 C-24.83291281 43.75621154 -24.83291281 43.75621154 -28.70629883 41.40136719 C-32.60657331 37.03354712 -31.91318429 32.56441351 -31.85546875 26.9140625 C-31.2004581 18.25856459 -26.71626827 12.19445996 -20.58203125 6.30078125 C-14.01778665 1.21014258 -8.07177877 -0.00952935 0 0 Z " fill="#FC593D" transform="translate(159.58203125,319.69921875)"/>
<path d="M0 0 C2.56354703 0.02140952 5.12428339 0.00015311 7.68774414 -0.02539062 C19.71672959 -0.04688715 28.88166641 1.15617584 37.94750977 9.72851562 C43.78066816 15.92624642 45.91835421 22.16083905 46.01000977 30.58398438 C46.03836914 31.77121094 46.06672852 32.9584375 46.09594727 34.18164062 C45.55232129 38.12062546 44.39824259 39.72229871 41.63500977 42.52148438 C39.21726396 43.73035728 37.70169912 43.6420778 35.00170898 43.63500977 C34.04086395 43.63493423 33.08001892 43.6348587 32.09005737 43.63478088 C31.05043854 43.6296196 30.0108197 43.62445831 28.93969727 43.61914062 C27.877117 43.61772568 26.81453674 43.61631073 25.71975708 43.61485291 C22.31647967 43.60924271 18.91326738 43.59668846 15.51000977 43.58398438 C13.2066253 43.57897069 10.9032398 43.57440755 8.59985352 43.5703125 C2.94488328 43.55926997 -2.71004883 43.54252189 -8.36499023 43.52148438 C-8.43737915 42.11431152 -8.43737915 42.11431152 -8.51123047 40.67871094 C-8.58543213 39.43573242 -8.65963379 38.19275391 -8.73608398 36.91210938 C-8.80496826 35.68524414 -8.87385254 34.45837891 -8.94482422 33.19433594 C-10.28699066 21.46188276 -17.21258714 12.60338486 -25.36499023 4.52148438 C-17.16080083 -0.34884715 -9.26906012 -0.09213249 0 0 Z " fill="#FC593D" transform="translate(338.364990234375,319.478515625)"/>
<path d="M0 0 C6.23662006 3.8572709 10.01986933 9.02445175 12.32421875 15.9375 C12.97100992 22.27605347 11.4219005 27.45559672 8.32421875 32.9375 C4.52154575 37.2342558 0.15082731 40.58230448 -5.62890625 41.30859375 C-14.15315372 41.48029068 -19.03834092 40.3727955 -25.19921875 34.48046875 C-29.65065774 29.60447055 -31.15118505 24.56378927 -30.9140625 18.01171875 C-30.09089082 10.84607678 -27.20736073 6.93668916 -21.7109375 2.3828125 C-15.30503354 -2.1664859 -7.39212417 -2.93526682 0 0 Z " fill="#FC583C" transform="translate(350.67578125,268.0625)"/>
<path d="M0 0 C6.08325226 2.75868416 10.20560851 7.28584545 13.015625 13.2890625 C14.57645747 20.93714159 13.82924954 26.72569736 9.640625 33.3515625 C5.48427087 37.97082811 1.07425872 40.85282241 -5.15625 41.7578125 C-12.8697017 42.00268398 -17.65863315 40.65288931 -23.359375 35.3515625 C-27.19407131 30.63193628 -28.98930966 26.10061932 -29.796875 20.1015625 C-29.08520342 14.00152037 -26.82221542 8.68725819 -22.31640625 4.4140625 C-15.36142586 -0.85601372 -8.6963352 -2.39005239 0 0 Z " fill="#FC583C" transform="translate(178.359375,267.6484375)"/>
</svg>
